<svg width="335" height="392" viewBox="0 22 335 392" fill="none" xmlns="http://www.w3.org/2000/svg">
<path opacity="0.1" d="M0.0633833 72.0634C0.0283907 44.4244 22.4244 22 50.0633 22H285C312.614 22 335 44.3858 335 72V364C335 391.614 312.614 414 285 414H50.433C22.8435 414 0.468003 391.653 0.433073 364.063L0.0633833 72.0634Z" fill="#68C9BA"/>
<path d="M310.394 94.3008C330.008 116.485 306.849 137.906 266.088 138.484C185.05 133.158 166.764 61.5908 172.888 45.5447C179.013 29.4987 197.249 29.0607 224.269 61.7487C251.289 94.4366 285.878 66.5707 310.394 94.3008Z" stroke="white" stroke-width="1.5"/>
<ellipse rx="12.8412" ry="7.57206" transform="matrix(0.935658 0.352908 -0.354644 0.935001 230.811 67.7819)" stroke="white" stroke-width="1.5"/>
</svg>
