<svg width="442" height="388" viewBox="0 0 442 388" fill="none" xmlns="http://www.w3.org/2000/svg">
<path opacity="0.1" d="M53.2134 71.74C57.2488 47.6491 78.0998 30.0002 102.526 30.0002H392C419.614 30.0002 442 52.386 442 80.0002V338C442 365.614 419.614 388 392 388H59.3093C28.3958 388 4.88926 360.229 9.99636 329.74L53.2134 71.74Z" fill="#68C9BA"/>
<path d="M409.746 124.03C435.457 153.207 405.098 181.381 351.666 182.141C245.436 175.137 221.465 81.0075 229.493 59.9029C237.521 38.7983 261.427 38.2222 296.847 81.2152C332.267 124.208 377.608 87.5574 409.746 124.03Z" stroke="white" stroke-width="1.5"/>
<ellipse rx="16.8402" ry="9.95502" transform="matrix(0.935268 0.353941 -0.353609 0.935393 305.422 89.1504)" stroke="white" stroke-width="1.5"/>
</svg>
