<svg width="442" height="365" viewBox="0 5 442 365" fill="none" xmlns="http://www.w3.org/2000/svg">
<path opacity="0.1" d="M53.2095 47.7411C57.245 23.6503 78.096 6.00153 102.522 6.00153H392C419.614 6.00153 442 28.3873 442 56.0015V314.002C442 341.616 419.614 364.002 392 364.002H59.3051C28.3915 364.002 4.88492 336.23 9.99207 305.741L53.2095 47.7411Z" fill="#2D9CDB"/>
<ellipse rx="30.9105" ry="18.2725" transform="matrix(0.935269 0.353938 -0.353612 0.935392 382.421 312.032)" stroke="white" stroke-width="1.5"/>
<path d="M108.617 253.712C48.115 265.919 33.4984 201.795 74.8671 127.691C168.814 -12.8767 317.188 28.8655 339.815 56.6612C362.443 84.457 344.259 117.798 257.066 132.395C169.873 146.991 184.245 238.454 108.617 253.712Z" stroke="white" stroke-width="1.5"/>
</svg>
